<?xml version="1.0" encoding="utf-8"?>
<!-- Generator: Adobe Illustrator 15.0.0, SVG Export Plug-In . SVG Version: 6.00 Build 0)  -->
<!DOCTYPE svg PUBLIC "-//W3C//DTD SVG 1.1//EN" "http://www.w3.org/Graphics/SVG/1.1/DTD/svg11.dtd">
<svg version="1.1" id="图层_1" xmlns="http://www.w3.org/2000/svg" xmlns:xlink="http://www.w3.org/1999/xlink" x="0px" y="0px"
	 width="1200px" height="600px" viewBox="0 0 1200 600" enable-background="new 0 0 1200 600" xml:space="preserve">
<g>
	<path d="M18.869,107.734c11.988,6.332,28.211,16.159,36.333,23.514l-15.442,18.625c-7.317-7.355-22.942-18.417-35.113-25.561
		L18.869,107.734z M45.47,156.206l18.063,16.155c-10.146,21.07-22.139,43.767-33.713,63.418L8.903,219.413
		C19.076,204.279,33.894,179.534,45.47,156.206z M29.82,52.699c11.574,6.751,27.615,17.601,35.116,24.957L49.103,95.65
		C41.992,88.085,26.756,76.421,15,69.064L29.82,52.699z M190.24,83.381H92.783v122.738h101.324v23.723H67.609V59.424H190.24V83.381z
		"/>
	<path d="M314.895,143.727h-14.406l5.478,1.418c-2.23,4.098-4.465,8.169-7.11,12.27h97.066v20.464h-41.423
		c-4.88,10.035-10.772,18.206-17.858,25.167c21.723,5.728,41.216,11.664,56.451,16.786l-21.127,17.601
		c-14.61-5.728-34.518-12.057-57.254-18.623c-22.345,11.453-52.191,16.969-91.38,20.462c-1.635-7.17-5.478-15.762-9.344-21.279
		c26.395-1.235,47.909-3.678,65.792-8.59c-13.599-3.285-27.823-6.543-42.018-9.616h-0.599l-0.414-0.21l3.036-2.653
		c5.089-5.727,10.565-12.06,15.833-19.019h-44.458v-20.467h59.097c4.256-6.33,8.123-12.476,10.95-18.623l9.939,2.439v-27.818
		c-18.061,17.786-43.236,31.918-69.035,39.696c-3.037-5.517-9.551-14.32-14.403-18.811c20.709-4.912,41.628-14.108,57.46-25.167
		H213.18V88.687h77.964V75.186c-19.904,1.236-39.784,1.838-58.263,1.838c-0.599-5.307-3.036-13.712-5.27-18.625
		c46.095-0.603,100.105-3.886,130.547-10.219l17.466,16.762c-17.466,3.678-38.564,6.542-60.706,8.589v15.134h77.76v20.463h-51.365
		c15.834,10.429,36.545,18.809,57.255,23.539c-5.267,4.494-12.173,13.924-15.443,19.833c-25.381-7.354-50.142-21.279-68.229-38.67
		V143.727z M284.422,177.905c-2.646,3.676-5.267,7.169-8.123,10.429c11.162,2.442,22.346,5.121,33.3,7.775
		c7.109-4.912,13.002-10.849,17.467-18.204H284.422z"/>
	<path d="M597.084,185.681h-78.769v26.166c0,12.689-3.036,18.809-12.586,22.302c-9.552,3.678-22.346,3.891-39.604,3.891
		c-1.636-6.963-6.281-17.182-9.939-23.54c13.002,0.603,28.028,0.603,32.077,0.42c4.257,0,5.271-1.024,5.271-3.678v-25.561h-77.37
		v-22.515h77.37v-12.687c7.707-3.073,15.622-7.357,22.94-11.876h-63.949v-21.066h91.563l4.879-1.236l15.442,12.057
		c-12.378,11.457-28.832,22.515-46.094,30.896v3.889h78.769V185.681L597.084,185.681z M441.572,125.101h-22.733V80.308h31.063
		c-3.658-6.959-9.343-14.92-14.222-21.277l20.505-9.196c7.11,7.986,15.232,19.02,18.685,26.797l-7.708,3.676h34.104
		c-2.829-8.195-8.124-18.204-13.185-26.191l21.309-7.985c6.695,8.801,13.391,21.277,16.04,29.448l-11.992,4.705h26.394
		c6.49-9.616,13.394-21.676,17.47-30.896l25.174,7.565c-5.478,7.988-11.577,15.947-17.257,23.331h29.638v44.789h-23.75v-23.328
		H441.572V125.101L441.572,125.101z"/>
	<path d="M681.329,178.508c-2.437-5.727-7.318-14.317-12.196-22.511v83.067h-23.357v-73.637
		c-6.697,15.763-14.226,30.263-22.14,40.508c-2.235-6.961-7.5-16.971-11.158-23.117c11.365-13.083,22.733-34.992,30.051-54.827
		h-27.404v-22.697h30.651v-23.12c-7.918,1.235-15.443,2.443-22.944,3.283c-0.804-5.514-3.866-13.502-6.488-18.809
		c23.149-3.466,48.533-9.827,65.377-16.786l13.6,19.835c-7.914,3.073-16.844,5.516-26.187,7.563v28.033h26.811v22.697h-26.811v1.628
		c5.892,5.728,22.526,24.955,26.394,29.66L681.329,178.508z M781.434,187.309v51.545h-23.748v-47.261l-61.328,10.639l-3.867-23.118
		l65.171-11.244V47.998h23.772v115.801l20.09-3.469l3.864,22.698L781.434,187.309z M730.488,158.859
		c-6.284-9.012-20.503-22.094-32.287-31.29l15.414-13.923c11.578,8.17,26.603,20.859,33.302,29.66L730.488,158.859z M735.753,104.87
		c-5.68-8.799-18.866-21.88-30.261-30.682l15.832-13.924c10.978,8.38,25.173,20.466,31.273,29.449L735.753,104.87z"/>
</g>
<g>
	<path d="M924.827,65.57v12.269h-92.294V65.57h38.675V12.689h-33.196V0h81.105v12.689h-34.103V65.57H924.827z"/>
	<path d="M865.028,116.193c-2.646,7.174-5.993,14.425-9.759,21.28v70.065h-12.172v-51.15c-2.127,2.547-4.255,5.125-6.306,7.355
		c-1.116-2.967-4.568-9.929-6.694-12.976c9.236-9.195,18.063-23.722,23.151-38.25L865.028,116.193z M897.211,140.337v10.745h26.291
		v11.061h-26.291v11.558h27.616v11.243h-27.616v22.698H884.83v-67.305h-3.836c-4.079,7.567-8.724,14.527-13.292,19.834
		c-1.918-2.258-6.696-6.54-9.238-8.485c8.931-9.195,16.945-23.933,21.513-38.566l11.682,2.97c-1.431,4.281-3.035,8.482-4.985,12.689
		h39.398v11.558H897.211L897.211,140.337z"/>
	<path d="M923.71,316.853v10.742h-89.954v-10.742h38.387v-8.804h-29.538v-10.43h29.538v-7.773h12.377v7.773h31.067v10.43H884.52
		v8.804H923.71z M845.332,262.549h-11.266v-19.544h38.983c-0.805-2.154-1.717-4.389-2.751-6.151l11.782-3.465
		c1.738,2.968,3.449,6.542,4.567,9.616h36.154v19.544h-10.771v8.196h-11.99c6.203,5.018,13.186,11.35,16.947,15.947l-9.551,6.54
		c-1.325-1.839-3.144-4.096-5.372-6.437c-45.395,3.68-50.869,4.099-54.918,5.727c-0.598-2.258-2.233-7.672-3.451-10.535
		c2.229-0.313,4.463-1.627,7.212-3.676c1.638-1.131,5.27-3.889,9.346-7.566h-14.923V262.549z M845.849,254.063v6.253h64.68v-6.253
		H845.849z M893.554,278.601c-1.817-1.631-3.661-3.072-5.269-4.493l4.981-3.362h-17.572c-3.657,3.467-7.707,6.751-11.78,9.826
		L893.554,278.601z"/>
</g>
<g>
	<path d="M45.599,267.646c5.088,0.708,8.669,1.521,10.746,2.44c0.7,0.237,0.806,0.815,0.336,1.762l-2.775,1.759l-2.077,11.876
		h19.076c2.078-3.259,4.284-6.069,6.592-8.381c0.469,0,0.807,0,1.038,0c5.089,3.495,8.565,6.172,10.408,8.038
		c0.699,0.918,0.571,1.63-0.338,2.102H51.491l-2.776,15.026h28.809c2.073-3.255,4.152-6.067,6.253-8.38c0.701,0,1.142,0,1.375,0
		c4.152,2.784,7.63,5.465,10.409,8.041c0.702,0.918,0.571,1.627-0.337,2.1H48.378l-2.442,12.244h20.479
		c0.231-0.236,0.802-0.713,1.737-1.394c0.908-1.156,1.608-1.866,2.077-2.104c0.233-0.471,0.7-0.471,1.374,0
		c3.245,1.632,6.93,4.205,11.108,7.699c0.235,0.71,0.105,1.287-0.337,1.76c-0.464,0.235-1.166,0.476-2.076,0.709
		c-1.609,0.237-2.672,0.577-3.115,1.052c-7.161,5.831-12.717,10.246-16.661,13.292c2.078,1.395,3.815,2.784,5.216,4.203
		c3.243,3.258,3.582,6.515,1.039,9.803c-3.246,2.782-6.592,2.573-10.071-0.711c-0.233-0.237-0.571-0.922-1.036-2.104
		c-0.47-1.627-1.041-2.915-1.741-3.838c-2.777-3.727-7.967-7.801-15.624-12.24c-0.465-0.234-0.701-0.578-0.701-1.049
		c0.236-0.474,0.572-0.579,1.039-0.341c7.63,1.181,13.756,2.783,18.4,4.886c3.245-5.834,6.696-11.769,10.409-17.838H46.301
		l-2.778,4.202c-0.467,0.471-0.936,0.578-1.375,0.341c-2.077-1.155-4.75-2.914-7.969-5.252c-0.231-0.237-0.231-0.712,0-1.393
		c0.234-0.237,0.571-0.474,1.04-0.71c0.908-0.709,1.503-1.287,1.737-1.762c0.236-0.71,0.701-2.68,1.378-5.937
		c0.465-1.392,0.803-2.574,1.038-3.493H16.817c-1.841,0-3.814,0.13-5.891,0.339l-1.741-2.44c1.144,0,2.207,0.133,3.116,0.342h27.071
		c0.466-1.628,0.907-4.206,1.373-7.699c0.704-3.255,1.143-5.699,1.377-7.328H20.607c-0.235,0-2.207,0.132-5.893,0.341l-1.738-2.443
		c0.908,0,1.844,0.13,2.777,0.341h26.369c0.701-3.731,1.376-8.274,2.077-13.634c0.232-1.864,0.337-3.02,0.337-3.495
		C44.771,267.646,45.135,267.409,45.599,267.646z"/>
	<path d="M98.339,293.861c8.33-0.472,13.651,1.632,15.96,6.305c0.908,2.788,0.337,5.018-1.737,6.649
		c-2.544,1.629-4.751,1.522-6.594-0.343c-0.468-0.709-0.935-1.76-1.376-3.152c-0.934-3.966-3.009-6.647-6.253-8.037
		C98.104,294.784,98.104,294.308,98.339,293.861z M125.408,286.507c0.233-0.471,0.465-0.578,0.698-0.341
		c0.235,0,0.338,0.238,0.338,0.71c-0.231,0.708-0.571,1.864-1.036,3.492c-6.488,23.303-9.5,37.07-9.031,41.245
		c0,2.784,0.337,6.174,1.037,10.143c0.466,1.391,0.701,2.443,0.701,3.152c0.465,3.964-1.273,6.645-5.217,8.039
		c-4.386,0.473-6.592-1.291-6.592-5.255c0-0.71,0.105-1.762,0.337-3.153c1.376-7.698-0.701-12.689-6.253-15.025
		c-0.469-0.476-0.34-0.814,0.336-1.053c4.385,5.597,10.51-3.152,18.4-26.217C121.694,295.727,123.771,290.476,125.408,286.507z
		 M107.006,273.216c8.564-0.709,14.222,1.18,17,5.595c1.373,3.02,0.7,5.597-2.078,7.696c-3.478,1.865-5.892,1.394-7.292-1.391
		c-0.233-0.474-0.466-1.288-0.702-2.444c-0.7-4.205-3.008-7.12-6.929-8.748C106.772,273.686,106.772,273.453,107.006,273.216z
		 M145.183,346.299v-29.37h-9.032c-1.842,0-3.814,0.133-5.892,0.343l-1.738-2.442c1.142,0,2.206,0.129,3.114,0.34h13.523v-23.435
		h-10.072c-1.843,0-3.709,0.131-5.552,0.342l-2.078-2.441c1.143,0,2.207,0.13,3.115,0.34h34.362
		c2.312-3.258,4.284-5.701,5.892-7.331c0.235,0,0.572,0,1.037,0c6.021,3.493,9.371,6.068,10.071,7.7c0.234,0.709,0,1.18-0.701,1.39
		h-24.994c0.235,0.476-0.128,1.185-1.037,2.103c-0.47,0.919-0.701,1.524-0.701,1.758v19.573h7.631c2.308-3.257,4.28-5.7,5.892-7.331
		c0.231,0,0.57,0,1.036,0c6.021,3.497,9.372,6.07,10.071,7.7c0.232,0.708,0,1.18-0.699,1.391h-23.93v29.37h14.559
		c0.467-0.71,1.609-1.969,3.479-3.835c0.908-0.919,1.506-1.628,1.737-2.102c0.47,0,0.908,0,1.376,0
		c4.621,2.339,7.501,4.416,8.667,6.304c0.701,0.92,0.57,1.394-0.337,1.394h-53.439c-1.843,0.235-3.815,0.341-5.89,0.341l-1.74-2.443
		c1.144,0.238,2.207,0.342,3.115,0.342H145.183L145.183,346.299z M141.007,269.037c9.704,1.183,15.155,4.677,16.297,10.483
		c0.234,3.73-1.375,6.306-4.852,7.695c-3.714,1.184-6.257,0.13-7.631-3.152c-0.469-0.918-0.571-2.574-0.339-4.885
		c0.234-4.205-1.038-7.226-3.815-9.091C140.201,269.378,140.303,269.037,141.007,269.037z"/>
	<path d="M191.665,328.461c4.854,0,11.213-0.342,19.078-1.051v-9.43c1.843,0,3.814,0.234,5.892,0.709
		c1.139-1.864,2.543-4.309,4.152-7.329h-9.031c-6.49,5.357-13.756,9.798-21.855,13.293c-0.701-0.236-0.932-0.578-0.701-1.053
		c5.557-3.255,10.642-7.223,15.263-11.873h-2.777l-2.077-2.444c1.142,0,2.207,0.131,3.114,0.342h3.815
		c2.778-2.785,5.321-5.938,7.629-9.432h-18.737c-0.231,0-2.207,0.132-5.889,0.341l-1.741-2.443c0.909,0,1.844,0.134,2.777,0.345
		h14.561v-12.927h-7.968c-1.842,0-3.814,0-5.893,0l-1.737-2.444c1.139,0,2.204,0.131,3.114,0.343h12.483v-13.976
		c0.233,0,0.907,0.131,2.077,0.341c4.852,0.708,7.864,1.287,9.03,1.759c0.469,0.237,0.469,0.579,0,1.052
		c0.235,0,0.235,0.131,0,0.341c-0.233,0.238-0.57,0.578-1.037,1.05l-0.702,0.341v9.091c1.374-2.104,2.646-3.628,3.816-4.546
		c0.466-0.471,0.802-0.471,1.037,0c1.377,0.71,3.012,2.104,4.852,4.203c0.703-1.628,1.377-3.153,2.078-4.542
		c0-0.475,0.571-0.579,1.739-0.343c3.477,1.627,6.591,3.494,9.369,5.594c0.469,0.475,0.469,0.921,0,1.394
		c-0.235,0-0.572,0.13-1.037,0.341c-0.701,0.473-1.843,1.183-3.478,2.102c-2.543,3.731-5.217,7.326-7.967,10.848h2.439
		c0.234-0.234,0.907-1.051,2.076-2.443c0.908-1.392,1.504-2.206,1.738-2.441c0.47,0,0.805,0,1.04,0
		c2.543,1.628,4.515,3.493,5.89,5.595c0.233,0.237,0.337,0.577,0.337,1.051c-0.232,0.235-0.569,0.235-1.038,0h-14.222
		c-2.778,3.493-5.788,6.647-9.031,9.431h5.892c1.141-1.626,1.972-2.783,2.439-3.493c0.467-0.475,0.907-0.475,1.376,0
		c3.01,2.103,5.659,4.071,7.967,5.938c0.234,0.472,0,0.918-0.7,1.394c-0.937,0-1.973,0.13-3.115,0.341
		c-2.777,1.181-5.788,2.915-9.031,5.252c0.466,0,1.037,0.133,1.737,0.345c0.701,0,1.143,0.13,1.377,0.34
		c0.701,0.237,0.803,0.709,0.337,1.392l-0.701,0.344c-1.376,1.389-1.972,2.442-1.74,3.151v2.101c1.612-0.235,4.155-0.472,7.63-0.709
		c3.012-0.474,5.218-0.709,6.593-0.709c0.7,0,1.04,0.131,1.04,0.343l-1.04,0.706c-4.853,1.395-9.498,2.788-13.883,4.206l0.7,17.469
		c-1.611,2.575-4.984,4.203-10.071,4.888c-0.7,0-1.169-0.235-1.376-0.708c-1.167-3.261-3.709-5.833-7.629-7.7
		c-0.232-0.236-0.338-0.473-0.338-0.709c0-0.238,0.105-0.341,0.338-0.341c4.619,1.157,7.527,1.157,8.669,0v-10.141
		c-2.544,0.918-6.126,2.206-10.745,3.838c-3.012,0.918-5.218,1.628-6.593,2.098c-0.469,0.239-0.806,0-1.04-0.708
		c0-0.709-0.232-2.208-0.701-4.544c-0.465-2.34-0.803-3.837-1.036-4.546C190.393,328.594,190.732,328.227,191.665,328.461z
		 M215.622,298.408c3.009-4.203,5.553-8.513,7.63-12.924h-8.667v12.924H215.622z M261.768,349.084
		c-5.086-2.785-9.266-6.646-12.484-11.534c-7.165,7.229-15.625,11.429-25.331,12.588c-0.234,0-0.337-0.134-0.337-0.342
		c0-0.239,0.103-0.476,0.337-0.712c8.098-2.337,15.392-8.513,21.852-18.52c-2.773-6.753-4.281-15.501-4.514-26.22
		c-0.235,0.238-0.572,0.709-1.039,1.395c-2.078,3.729-3.583,6.067-4.515,6.985c-0.234,0.237-0.57,0.344-1.04,0.344
		c-0.232-0.235-0.232-0.58,0-1.052c4.155-11.192,6.697-24.932,7.629-41.244c0-0.92,0.341-1.288,1.039-1.05
		c4.853,1.18,8.668,2.335,11.446,3.493c0.466,0.234,0.466,0.709,0,1.39c-0.233,0.236-0.57,0.475-1.038,0.708
		c-1.17,0.712-1.841,1.631-2.076,2.788c-1.609,5.121-3.35,10.008-5.216,14.684h12.481c2.078-2.785,3.816-4.885,5.22-6.304
		c0.231-0.474,0.57-0.474,1.037,0c2.778,1.182,5.787,3.387,9.031,6.648c0.234,0.47,0.338,0.811,0.338,1.049
		c-0.234,0.236-0.571,0.339-1.039,0.339h-11.446c2.544,0.711,4.516,1.632,5.893,2.786c0.466,0.475,0.466,0.921,0,1.393
		c-0.235,0-0.468,0.13-0.702,0.341c-1.376,0.708-2.206,1.628-2.439,2.785c-1.843,11.428-5.215,20.858-10.07,28.32
		c4.855,5.596,10.511,9.43,16.999,11.532c0.469,0.472,0.469,0.813,0,1.051c-3.478,0-6.358,1.864-8.667,5.598
		C262.675,348.849,262.207,349.084,261.768,349.084z M242.326,301.901c1.143,7.698,3.583,14.686,7.292,20.967
		c3.248-8.147,5.428-17.604,6.593-28.321h-10.408C244.873,297.357,243.703,299.802,242.326,301.901z"/>
	<path d="M328.726,287.9c-0.231-0.474-0.129-0.709,0.341-0.709c9.938-0.238,17.336,1.97,22.214,6.646
		c2.775,3.022,3.476,6.176,2.076,9.429c-2.076,3.731-4.618,4.548-7.631,2.444c-0.934-0.709-2.206-2.444-3.813-5.255
		c-0.466-0.709-0.806-1.286-1.037-1.758c-22.892,2.338-39.554,4.439-49.962,6.305c-1.168,0-1.739-0.342-1.739-1.05
		c-0.701-1.631-1.843-4.416-3.476-8.381c0.231-0.474,0.466-0.814,0.701-1.053c3.916,0.238,10.173-3.152,18.738-10.139h-19.078
		c-1.842,0-3.815,0.131-5.889,0.342l-1.741-2.444c1.143,0,2.208,0.13,3.115,0.344h61.769c0.468-0.711,1.272-1.761,2.441-3.153
		c1.609-2.34,2.774-3.731,3.478-4.205c0.467-0.472,0.908-0.472,1.374,0l0.702,0.341c5.554,3.73,8.668,6.174,9.369,7.33
		c-0.234,0.919-0.57,1.396-1.04,1.396h-42.667c1.611,0.47,3.013,1.049,4.153,1.759c0,0.469-0.129,0.918-0.336,1.392
		c-0.468,0-1.169,0-2.077,0c-1.17,0-1.972,0.131-2.441,0.34c-2.543,0.919-6.488,2.575-11.809,4.889
		c-3.01,1.18-5.215,2.098-6.592,2.784c11.811,0,25.67,0.341,41.63,1.05C337.162,292.682,333.58,289.766,328.726,287.9z
		 M301.994,350.138c0,1.388-1.374,2.336-4.151,2.784c-3.245,0.47-4.984,0.103-5.215-1.053c0-1.865,0.102-4.887,0.335-9.089
		c0-1.865,0-2.918,0-3.151v-33.918c4.386,1.394,7.396,2.681,9.03,3.838h29.847c2.077-2.103,3.479-3.26,4.154-3.496
		c0.467-0.234,0.802-0.342,1.037-0.342c0.234,0.237,0.466,0.342,0.701,0.342c2.544,0.709,5.423,2.101,8.67,4.205
		c0.231,0.473,0.337,1.049,0.337,1.759c-0.701,0.708-1.61,1.395-2.778,2.103v22.722c0.234,4.44,0.336,8.856,0.336,13.297
		c-1.167,2.098-4.618,3.36-10.407,3.833c-0.466,0-0.932-0.342-1.375-1.049c-1.842-4.442-4.982-7.225-9.37-8.383
		c-0.465-0.473-0.336-0.813,0.337-1.05c5.322,1.392,9.033,1.392,11.108,0v-10.483h-32.62v17.132H301.994z M301.994,311.335v9.088
		h32.625v-9.088H301.994z M301.994,322.156v8.747h32.625v-8.747H301.994z M309.625,267.278c8.798,0.472,13.756,3.153,14.922,8.036
		c0.47,3.022-0.7,5.257-3.476,6.649c-3.245,1.182-5.554,0.579-6.932-1.762c-0.231-0.708-0.465-1.865-0.7-3.493
		c0-3.97-1.271-6.752-3.814-8.381C309.185,267.855,309.185,267.513,309.625,267.278z"/>
	<path d="M434.201,348.374c7.397-7.695,11.212-19.098,11.446-34.255v-27.981c0-6.749-0.339-11.873-1.038-15.393
		c0-0.473,0.234-0.711,0.699-0.711c1.376,0.475,4.621,1.867,9.706,4.205h41.632c1.167-1.864,2.438-3.151,3.815-3.834l0.336-0.342
		c0.234-0.237,0.571-0.237,1.037,0h0.34c0.907,0.472,2.645,1.392,5.215,2.785c1.608,0.708,2.776,1.286,3.478,1.758
		c0.466,0.708,0.571,1.287,0.337,1.761c-0.237,0.238-0.467,0.473-0.702,0.708c-0.933,0.919-1.505,1.525-1.74,1.759v53.49
		c0,3.493,0.104,7.801,0.338,12.926v1.048c-1.376,2.785-4.854,4.309-10.406,4.546c-0.701,0.237-1.041,0-1.041-0.707
		c-2.074-4.44-5.423-6.885-10.068-7.331c-0.7-0.712-0.571-1.157,0.336-1.392c7.166,0.918,10.978,0.577,11.446-1.053v-23.434h-17.336
		v10.481c0,7.701,0,13.637,0,17.841c-0.233,1.39-1.738,2.441-4.517,3.149c-3.243,0.71-4.98,0.343-5.216-1.05
		c0-1.394,0-3.966,0-7.698c0.235-4.65,0.338-8.039,0.338-10.139v-12.585h-17.701c-0.933,14.685-7.76,25.509-20.476,32.523
		C434.071,349.428,433.969,349.084,434.201,348.374z M455.014,276.027v18.52h17.703v-18.52H455.014z M455.014,296.648v18.521h17.703
		v-18.521H455.014z M499.423,294.547v-18.52h-15.626c0,0.234-0.229,0.709-0.699,1.391c-0.702,0.709-1.039,1.287-1.039,1.761v15.395
		h17.364V294.547z M499.423,315.169v-18.521h-17.336v18.521H499.423z"/>
	<path d="M531.708,299.802c6.93,10.954,7.292,20.384,1.039,28.317c-2.544,2.341-5.218,2.915-7.969,1.763
		c-3.009-1.632-3.944-3.969-2.776-6.991c0.467-0.919,1.505-2.441,3.113-4.542c4.855-5.125,6.698-11.19,5.556-18.182
		C530.645,299.458,531.008,299.328,531.708,299.802z M554.937,334.766c0,3.021,1.844,4.546,5.554,4.546h7.294
		c7.632,1.18,12.484-5.019,14.56-18.519c0.233-0.475,0.572-0.475,1.038,0c-1.609,8.851-0.934,15.26,2.078,19.229
		c0.7,0.918,1.038,1.627,1.038,2.102c0,4.411-5.321,6.748-15.964,6.986h-9.705c-9.705-0.238-14.793-2.784-15.263-7.695v-41.249
		l-0.335-9.798c0-0.234,0.105-0.341,0.335-0.341c4.155,0.473,8.098,1.63,11.81,3.494c0.234,0.474,0.234,0.814,0,1.052
		c-0.233,0.235-0.699,0.71-1.375,1.393c-0.469,0.237-0.805,0.474-1.037,0.708v38.092H554.937z M553.196,271.139
		c9.707,0.919,16.066,4.072,19.078,9.432c1.844,3.967,1.375,7.46-1.376,10.482c-3.01,2.572-5.788,2.336-8.329-0.709
		c-0.936-0.923-1.508-2.783-1.739-5.597c-0.936-5.359-3.583-9.563-7.97-12.585c-0.229-0.234-0.336-0.472-0.336-0.708
		C552.523,271.243,552.73,271.139,553.196,271.139z M579.931,298.408c12.016,3.259,19.776,8.273,23.254,15.026
		c2.309,5.123,2.207,9.434-0.337,12.926c-3.712,3.257-6.93,2.916-9.707-1.052c-0.701-0.92-1.377-2.915-2.078-5.938
		c-1.843-8.852-5.682-15.604-11.445-20.277C579.358,298.617,579.461,298.408,579.931,298.408z"/>
	<path d="M620.523,274.632c1.606,0,4.514,0.816,8.664,2.443c0.912,0.472,1.612,0.816,2.079,1.051c0.232,0.919,0.232,1.394,0,1.394
		c0,0.234-0.337,0.472-1.037,0.708c-0.935,0.473-1.506,0.92-1.742,1.392c-0.465,0.708-1.166,1.762-2.073,3.152
		c-0.936,1.63-1.611,2.789-2.078,3.496h9.37V273.24l-0.339-4.544c0-0.236,0.107-0.341,0.339-0.341c0.701,0,1.61,0.132,2.774,0.341
		c3.948,0.238,6.594,0.58,7.971,1.05c0.465,0.238,0.465,0.709,0,1.394c-0.469,0.709-1.271,1.392-2.44,2.101v15.028h4.514
		c1.17-1.631,2.884-3.73,5.22-6.305c0.467-0.474,0.907-0.474,1.375,0c3.01,1.865,5.556,4.073,7.629,6.646
		c0.468,0.71,0.34,1.182-0.337,1.392h-18.4v12.244h8.329c1.612-2.576,3.35-4.651,5.219-6.307c0.466-0.471,0.803-0.471,1.039,0
		c3.243,1.631,5.891,3.837,7.965,6.649c0.234,0.71,0.105,1.181-0.336,1.391h-21.853v10.143h6.93l1.036-1.051
		c0.912-1.158,1.507-1.868,1.741-2.102c0.233-0.236,0.805-0.344,1.738-0.344c4.386,1.632,7.5,3.259,9.367,4.887
		c0.237,0.474,0.237,0.919,0,1.394c-0.231,0.234-0.698,0.579-1.373,1.05c-0.703,0.472-1.169,0.815-1.375,1.05l0.336,20.281
		c0.237,3.969-3.243,6.175-10.406,6.646c-0.234,0-0.571-0.342-1.038-1.05c-1.169-3.493-3.348-5.938-6.592-7.331v11.534
		c-0.467,1.864-2.545,3.021-6.258,3.495c-2.542,0-3.814-1.183-3.814-3.495l0.701-32.866H625.4v25.17
		c-0.234,1.865-1.971,3.022-5.215,3.493c-2.778,0.235-4.154-0.709-4.154-2.786l0.7-23.773c0-2.338,0-4.887,0-7.698
		c0-0.472,0.234-0.578,0.703-0.341c1.608,0.474,3.944,1.524,6.929,3.152c0.467,0.474,0.803,0.709,1.037,0.709h7.967v-10.141H616.37
		c-1.844,0-3.815,0.133-5.892,0.342l-1.742-2.443c1.17,0,2.208,0.13,3.115,0.343h21.516L633.706,290h-10.407
		c-2.312,3.259-5.22,6.989-8.669,11.192c-1.167-0.237-1.609-0.577-1.374-1.05c3.241-6.99,5.085-15.159,5.552-24.459
		C619.484,274.739,620.055,274.396,620.523,274.632z M642.374,316.218l0.336,19.231c5.321,0.919,8.099,0.342,8.333-1.761v-17.471
		H642.374z M676.375,327.41c-0.47,2.338-2.547,3.732-6.255,4.203c-2.312-0.234-3.479-1.629-3.479-4.203l0.338-40.194v-7.327
		c1.375-1.631,5.319-0.71,11.806,2.784c0.472,0.919,0.571,1.523,0.341,1.758l-3.115,1.762L676.375,327.41z M692.7,345.931
		c0,4.652-3.945,7.227-11.811,7.698c-0.7-0.237-1.168-0.578-1.376-1.05c-1.374-6.07-5.088-9.326-11.107-9.801
		c-0.467-1.391-0.337-2.207,0.335-2.442c8.801,1.629,13.29,1.393,13.521-0.707v-70.25c0.47,0,1.378,0.134,2.778,0.344
		c5.321,0.47,8.438,1.05,9.372,1.759c0.7,0.708,0.7,1.393,0,2.102c-0.235,0-0.574,0.235-1.04,0.708
		c-0.702,0.235-1.168,0.474-1.375,0.709v13.292L692.7,345.931z"/>
	<path d="M719.065,268.67c3.246,1.393,7.059,3.388,11.445,5.936c0.7,0.708,0.7,1.287,0,1.761c-1.842,0.238-3.113,0.919-3.813,2.1
		c-3.71,5.596-7.397,10.485-11.106,14.686c2.309,0.237,3.813,0.579,4.515,1.053c0.702,0.235,0.803,0.708,0.337,1.39
		c-0.232,0.71-0.804,1.288-1.739,1.761v37.754c0,2.571,0.105,5.356,0.34,8.378c0,2.574,0,4.543,0,5.938
		c0,1.389-1.506,2.441-4.518,3.151c-3.479,0.71-5.319,0.472-5.555-0.71c0-0.708,0-2.208,0-4.545
		c0.235-3.968,0.339-7.566,0.339-10.85v-36.7c-3.48,3.729-7.164,6.987-11.108,9.799c-0.467,0-0.572-0.238-0.337-0.71
		c8.329-10.717,14.922-23.879,19.774-39.51C717.899,268.67,718.367,268.459,719.065,268.67z M745.074,268.67
		c3.008,0.917,7.289,2.784,12.845,5.595c0.234,0.475,0.106,0.92-0.337,1.394c-0.469,0.234-1.169,0.472-2.078,0.708
		c-1.164,0.235-1.971,0.708-2.438,1.39c-3.245,5.362-7.164,10.721-11.808,16.08h24.628c2.076-3.259,4.154-6.068,6.254-8.38
		c0.702,0,1.171,0,1.379,0c4.152,2.784,7.628,5.464,10.404,8.039c0.702,0.918,0.57,1.628-0.338,2.099h-30.182
		c0.232,0,0.337,0.131,0.337,0.341c0,0.474-0.572,0.923-1.738,1.395v16.788h11.444c0.234-0.474,0.806-1.157,1.739-2.103
		c1.842-2.574,3.243-4.202,4.151-4.887c0.468-0.473,0.808-0.473,1.04,0c5.086,2.573,8.435,5.017,10.068,7.331
		c0.234,0.918,0,1.522-0.699,1.757h-27.77v19.573h16.66c0.468-0.708,1.61-2.205,3.478-4.544c0.909-1.155,1.505-1.864,1.739-2.103
		c0.468,0,0.909,0,1.374,0c4.384,2.576,7.294,4.888,8.67,6.988c0.701,0.708,0.571,1.183-0.335,1.394h-31.586
		c0,2.573,0.104,5.83,0.336,9.798c0,1.155,0,1.864,0,2.104c0,1.389-1.377,2.336-4.151,2.783c-3.713,0.711-5.687,0.473-5.894-0.709
		c0-0.919,0-2.573,0-4.888c0.235-3.492,0.337-6.173,0.337-8.038v-41.245c0-0.71-0.13-1.288-0.337-1.76h-2.777
		c-4.854,5.358-10.174,10.009-15.962,13.978c-0.462-0.238-0.698-0.475-0.698-0.714c8.797-10.479,15.729-23.641,20.815-39.509
		C743.933,268.67,744.396,268.459,745.074,268.67z"/>
</g>
</svg>
